<?xml version="1.0" encoding="UTF-8" standalone="no"?>
<!-- Created with Inkscape (http://www.inkscape.org/) -->

<svg
   xmlns:dc="http://purl.org/dc/elements/1.1/"
   xmlns:cc="http://creativecommons.org/ns#"
   xmlns:rdf="http://www.w3.org/1999/02/22-rdf-syntax-ns#"
   xmlns:svg="http://www.w3.org/2000/svg"
   xmlns="http://www.w3.org/2000/svg"
   xmlns:sodipodi="http://sodipodi.sourceforge.net/DTD/sodipodi-0.dtd"
   xmlns:inkscape="http://www.inkscape.org/namespaces/inkscape"
   width="744.09448819"
   height="1052.3622047"
   id="svg2"
   inkscape:label="Pozadí"
   version="1.1"
   inkscape:version="0.48.4 r9939"
   sodipodi:docname="plus1.svg">
  <defs
     id="defs3" />
  <sodipodi:namedview
     id="base"
     pagecolor="#ffffff"
     bordercolor="#666666"
     borderopacity="1.0"
     inkscape:pageopacity="0.0"
     inkscape:pageshadow="2"
     inkscape:zoom="44.8"
     inkscape:cx="3.8793112"
     inkscape:cy="1048.0402"
     inkscape:document-units="px"
     inkscape:current-layer="layer1"
     showgrid="false"
     inkscape:window-width="1600"
     inkscape:window-height="875"
     inkscape:window-x="0"
     inkscape:window-y="0"
     inkscape:window-maximized="1" />
  <metadata
     id="metadata6">
    <rdf:RDF>
      <cc:Work
         rdf:about="">
        <dc:format>image/svg+xml</dc:format>
        <dc:type
           rdf:resource="http://purl.org/dc/dcmitype/StillImage" />
        <dc:title />
      </cc:Work>
    </rdf:RDF>
  </metadata>
  <g
     inkscape:label="Vrstva 1"
     inkscape:groupmode="layer"
     id="layer1">
    <path
       inkscape:connector-curvature="0"
       id="glowCircle"
       d="m 11.133024,6.3219153 c 0,2.66 -2.1564257,4.8164997 -4.8165116,4.8164997 C 3.656426,11.138415 1.5,8.9819153 1.5,6.3219153 c 0,-2.6601 2.156426,-4.81655 4.8165124,-4.81655 2.6600859,0 4.8165116,2.15645 4.8165116,4.81655 z"
       style="fill:none;stroke:#ffffff;stroke-width:3;stroke-miterlimit:4;stroke-opacity:1;stroke-dasharray:none" />
    <g
       transform="translate(-0.05857241,-1039.6652)"
       id="glowSymbol"
       style="font-size:40px;font-style:normal;font-weight:normal;line-height:125%;letter-spacing:0px;word-spacing:0px;fill:#000000;fill-opacity:1;stroke:#ffffff;stroke-width:2;stroke-miterlimit:4;stroke-opacity:1;stroke-dasharray:none;font-family:Sans">
      <path
         inkscape:connector-curvature="0"
         id="path3784"
         style="font-size:10px;stroke:#ffffff;stroke-width:2;stroke-miterlimit:4;stroke-opacity:1;stroke-dasharray:none"
         d="m 6.7424724,1042.7891 0,2.7197 2.7197266,0 0,0.8301 -2.7197266,0 0,2.7197 -0.8203125,0 0,-2.7197 -2.7197266,0 0,-0.8301 2.7197266,0 0,-2.7197 0.8203125,0" />
    </g>
    <path
       style="fill:none;stroke:#000000;stroke-width:1;stroke-miterlimit:4;stroke-opacity:1;stroke-dasharray:none"
       d="m 11.133024,6.3219153 c 0,2.66 -2.1564257,4.8164997 -4.8165116,4.8164997 C 3.656426,11.138415 1.5,8.9819153 1.5,6.3219153 c 0,-2.6601 2.156426,-4.81655 4.8165124,-4.81655 2.6600859,0 4.8165116,2.15645 4.8165116,4.81655 z"
       id="circle"
       inkscape:connector-curvature="0" />
    <g
       style="font-size:40px;font-style:normal;font-weight:normal;line-height:125%;letter-spacing:0px;word-spacing:0px;fill:#000000;fill-opacity:1;stroke:#000000;stroke-width:0.5;stroke-miterlimit:4;stroke-opacity:1;stroke-dasharray:none;stroke-dashoffset:0;font-family:Sans"
       id="symbol"
       transform="translate(-0.05857241,-1039.6652)"
       inkscape:label="#symbol">
      <path
         d="m 6.7424724,1042.7891 0,2.7197 2.7197266,0 0,0.8301 -2.7197266,0 0,2.7197 -0.8203125,0 0,-2.7197 -2.7197266,0 0,-0.8301 2.7197266,0 0,-2.7197 0.8203125,0"
         style="font-size:10px;stroke:#000000;stroke-width:0.5;stroke-miterlimit:4;stroke-opacity:1;stroke-dasharray:none;stroke-dashoffset:0"
         id="path3778"
         inkscape:connector-curvature="0" />
    </g>
  </g>
</svg>
