<?xml version="1.0" encoding="UTF-8" standalone="no"?>
<!-- Created with Inkscape (http://www.inkscape.org/) -->

<svg
   xmlns:dc="http://purl.org/dc/elements/1.1/"
   xmlns:cc="http://creativecommons.org/ns#"
   xmlns:rdf="http://www.w3.org/1999/02/22-rdf-syntax-ns#"
   xmlns:svg="http://www.w3.org/2000/svg"
   xmlns="http://www.w3.org/2000/svg"
   xmlns:sodipodi="http://sodipodi.sourceforge.net/DTD/sodipodi-0.dtd"
   xmlns:inkscape="http://www.inkscape.org/namespaces/inkscape"
   width="12"
   height="12"
   id="svg2"
   inkscape:label="Pozadí"
   version="1.1"
   inkscape:version="0.48.4 r9939"
   sodipodi:docname="rotpivot.svg">
  <defs
     id="defs3" />
  <sodipodi:namedview
     id="base"
     pagecolor="#ffffff"
     bordercolor="#666666"
     borderopacity="1.0"
     inkscape:pageopacity="0.0"
     inkscape:pageshadow="2"
     inkscape:zoom="44.8"
     inkscape:cx="0.67623879"
     inkscape:cy="10.187491"
     inkscape:document-units="px"
     inkscape:current-layer="svg2"
     showgrid="false"
     inkscape:window-width="1600"
     inkscape:window-height="873"
     inkscape:window-x="0"
     inkscape:window-y="0"
     inkscape:window-maximized="1"
     showguides="true"
     inkscape:guide-bbox="true"
     showborder="false"
     inkscape:showpageshadow="false">
    <sodipodi:guide
       position="0,0"
       orientation="0,100"
       id="guide3832" />
    <sodipodi:guide
       position="0,100"
       orientation="100,0"
       id="guide3838" />
    <sodipodi:guide
       position="0,0"
       orientation="0,12"
       id="guide3840" />
    <sodipodi:guide
       position="12,0"
       orientation="-12,0"
       id="guide3842" />
    <sodipodi:guide
       position="12,12"
       orientation="0,-12"
       id="guide3844" />
    <sodipodi:guide
       position="0,12"
       orientation="12,0"
       id="guide3846" />
  </sodipodi:namedview>
  <metadata
     id="metadata6">
    <rdf:RDF>
      <cc:Work
         rdf:about="">
        <dc:format>image/svg+xml</dc:format>
        <dc:type
           rdf:resource="http://purl.org/dc/dcmitype/StillImage" />
        <dc:title />
      </cc:Work>
    </rdf:RDF>
  </metadata>
  <g
     inkscape:label="Vrstva 1"
     inkscape:groupmode="layer"
     id="layer1" />
  <path
     style="font-size:medium;font-style:normal;font-variant:normal;font-weight:normal;font-stretch:normal;text-indent:0;text-align:start;text-decoration:none;line-height:normal;letter-spacing:normal;word-spacing:normal;text-transform:none;direction:ltr;block-progression:tb;writing-mode:lr-tb;text-anchor:start;baseline-shift:baseline;color:#000000;fill:#000000;fill-opacity:1;fill-rule:nonzero;stroke:none;stroke-width:0.82141274;marker:none;visibility:visible;display:inline;overflow:visible;enable-background:accumulate;font-family:Sans;-inkscape-font-specification:Sans"
     d="m -1,-11.875 0,3.9375 C -4.6168811,-7.4807928 -7.5082721,-4.6009995 -7.96875,-1 l -3.90625,0 0,2 3.90625,0 C -7.5082721,4.6009995 -4.6168811,7.4807928 -1,7.9375 l 0,3.9375 2,0 0,-3.9375 C 4.6168811,7.4807928 7.5082721,4.6009995 7.96875,1 l 3.90625,0 0,-2 -3.90625,0 C 7.5082721,-4.6009995 4.6168811,-7.4807928 1,-7.9375 l 0,-3.9375 z m 0,6 0,3.75 2,0 0,-3.75 C 3.5153028,-5.46259 5.4600949,-3.5255685 5.875,-1 l -3.75,0 0,2 3.75,0 C 5.4600949,3.5255685 3.5153028,5.46259 1,5.875 l 0,-3.75 -2,0 0,3.75 C -3.5153028,5.46259 -5.4600949,3.5255685 -5.875,1 l 3.75,0 0,-2 -3.75,0 C -5.4600949,-3.5255685 -3.5153028,-5.46259 -1,-5.875 z"
     id="path2995"
     inkscape:connector-curvature="0"
     sodipodi:nodetypes="cccccccccccccccccccccccccccccccccc" />
</svg>
